<svg xmlns="http://www.w3.org/2000/svg" viewBox="0 0 64 64">
  <rect width="64" height="64" rx="14" fill="#1b54d6"/>
  <rect x="8" y="18" width="48" height="28" rx="5" fill="#fff" opacity=".95"/>
  <path d="M42 18v28" stroke="#1b54d6" stroke-width="2" stroke-dasharray="4 4" opacity=".55"/>
  <path d="M35.4 39.6 33 30.4l3.9-3.9a2.3 2.3 0 0 0-3.3-3.3l-3.9 3.9-9.2-2.4a.55.55 0 0 0-.55.9l3.55 3.55-2.2 2.2-2-.45a.55.55 0 0 0-.55.9l1.6 1.6 1.6 1.6a.55.55 0 0 0 .9-.55l-.45-2 2.2-2.2 3.55 3.55a.55.55 0 0 0 .9-.55Z" fill="#1b54d6"/>
  <circle cx="49" cy="26" r="1.8" fill="#1b54d6" opacity=".35"/>
  <circle cx="49" cy="32" r="1.8" fill="#1b54d6" opacity=".35"/>
  <circle cx="49" cy="38" r="1.8" fill="#1b54d6" opacity=".35"/>
</svg>
